<svg xmlns="http://www.w3.org/2000/svg" viewBox="0 0 1440 118.59"><defs><style>.cls-1,.cls-2{fill:#8cbfc4;}.cls-1{opacity:0.1;}.cls-2{opacity:0.2;}</style></defs><g id="Layer_2" data-name="Layer 2"><g id="Layer_1-2" data-name="Layer 1"><path class="cls-1" d="M1086.36,93.38C978.86,118.12,864.42,136,713,76,404.93-46.13,249.94,112.29,8.11,10.79,187.49,85.34,334.51,0,523.63,0,590.14,0,661.85,10.55,742,42.33,884.24,98.72,989.36,100.36,1086.36,93.38Z"/><path class="cls-2" d="M1440,109.31v9.28H0V7.32c1.84.81,3.68,1.61,5.51,2.38.87.37,1.74.74,2.6,1.09C249.94,112.29,404.93-46.13,713,76c151.42,60,265.86,42.12,373.36,17.38,113.51-8.17,215.9-28.13,353.61,14Z"/><path class="cls-1" d="M1440,107.41c-137.71-42.16-240.1-22.2-353.61-14C1200,67.21,1305.89,33.42,1439.5,76Z"/></g></g></svg>