<svg xmlns="http://www.w3.org/2000/svg" viewBox="0 0 1440 111.17"><defs><style>.cls-1,.cls-2{fill:#8cbfc4;}.cls-1{opacity:0.1;}.cls-2{opacity:0.2;}</style></defs><g id="Layer_2" data-name="Layer 2"><g id="Layer_1-2" data-name="Layer 1"><path class="cls-1" d="M267.09,65.26C194.26,51.9,111.54,39.43,0,44.37V17.84C113,16.91,194.16,41.23,267.09,65.26Z"/><path class="cls-1" d="M1440,30v1.61c-227.88,41.71-354.39-9.65-489.39-24C1109.56-2.3,1262.22,22.3,1440,30Z"/><path class="cls-2" d="M1440,0V30C1262.22,22.3,1109.56-2.3,950.61,7.63,873-.61,792.59,3.4,688.5,44.37,502.33,117.65,401.57,89.93,267.09,65.26,194.16,41.23,113,16.91,0,17.84V0Z"/><path class="cls-1" d="M950.61,7.63c-95.5,6-193.26,24.4-300.11,66.46-171.18,67.38-266.77,29.63-383.41-8.83C401.57,89.93,502.33,117.65,688.5,44.37,792.59,3.4,873-.61,950.61,7.63Z"/></g></g></svg>